<svg xmlns="http://www.w3.org/2000/svg" xmlns:xlink="http://www.w3.org/1999/xlink" width="1920" zoomAndPan="magnify" viewBox="0 0 1440 809.999993" height="1080" preserveAspectRatio="xMidYMid meet" version="1.0"><defs><g/></defs><path stroke-linecap="butt" transform="matrix(0.745845, -0.0788352, 0.0788352, 0.745845, 495.097661, 291.856469)" fill="none" stroke-linejoin="miter" d="M 7.498841 1.000773 L 311.919784 0.999544 " stroke="#b96ad3" stroke-width="2" stroke-opacity="1" stroke-miterlimit="4"/><path stroke-linecap="round" transform="matrix(0.745845, -0.0788352, 0.0788352, 0.745845, 495.097661, 291.856469)" fill-opacity="1" fill="#b96ad3" fill-rule="nonzero" stroke-linejoin="round" d="M 0.999387 0.999879 C 1.001464 -0.654903 2.343045 -2.000506 3.997828 -1.998429 C 5.658337 -2.000984 6.998212 -0.654771 7.001315 1.000559 C 6.999239 2.655341 5.657657 4.000944 3.997695 3.99832 C 2.342366 4.001423 1.00249 2.655209 0.999387 0.999879 " stroke="#b96ad3" stroke-width="2" stroke-opacity="1" stroke-miterlimit="4"/><path stroke-linecap="round" transform="matrix(0.745845, -0.0788352, 0.0788352, 0.745845, 495.097661, 291.856469)" fill-opacity="1" fill="#b96ad3" fill-rule="nonzero" stroke-linejoin="round" d="M 318.419237 1.000438 C 318.42234 2.655768 317.075579 4.000823 315.420797 3.998747 C 313.765467 4.00185 312.420412 2.655089 312.422489 1.000306 C 312.419386 -0.655023 313.766147 -2.000079 315.420929 -1.998002 C 317.076259 -2.001105 318.421314 -0.654344 318.419237 1.000438 " stroke="#b96ad3" stroke-width="2" stroke-opacity="1" stroke-miterlimit="4"/><path stroke-linecap="butt" transform="matrix(0.686934, 0.301034, -0.301034, 0.686934, 516.346156, 317.164605)" fill="none" stroke-linejoin="miter" d="M 7.497826 1.001073 L 126.168561 0.999266 " stroke="#b96ad3" stroke-width="2" stroke-opacity="1" stroke-miterlimit="4"/><path stroke-linecap="round" transform="matrix(0.686934, 0.301034, -0.301034, 0.686934, 516.346156, 317.164605)" fill-opacity="1" fill="#b96ad3" fill-rule="nonzero" stroke-linejoin="round" d="M 0.997938 1.00057 C 1.000207 -0.655195 2.344097 -2.00043 3.999863 -1.99816 C 5.658308 -2.002752 6.998772 -0.656772 7.001273 0.996903 C 7.001095 2.657439 5.657204 4.002673 4.001439 4.000404 C 2.340903 4.000225 1.000439 2.654245 0.997938 1.00057 " stroke="#b96ad3" stroke-width="2" stroke-opacity="1" stroke-miterlimit="4"/><path stroke-linecap="butt" transform="matrix(0.467656, 0.586343, -0.586343, 0.467656, 495.761405, 335.123734)" fill="none" stroke-linejoin="miter" d="M 7.500215 0.998277 L 346.403369 1.001386 " stroke="#b96ad3" stroke-width="2" stroke-opacity="1" stroke-miterlimit="4"/><path stroke-linecap="round" transform="matrix(0.467656, 0.586343, -0.586343, 0.467656, 495.761405, 335.123734)" fill-opacity="1" fill="#b96ad3" fill-rule="nonzero" stroke-linejoin="round" d="M 0.999472 0.996488 C 0.998659 -0.656352 2.344487 -2.001272 4.001398 -1.998838 C 5.654238 -1.999652 7.002406 -0.657896 6.999972 0.999016 C 6.997538 2.655927 5.659029 4.000023 3.99887 4.001661 C 2.341959 3.999227 1.00111 2.656647 0.999472 0.996488 " stroke="#b96ad3" stroke-width="2" stroke-opacity="1" stroke-miterlimit="4"/><path stroke-linecap="round" transform="matrix(0.467656, 0.586343, -0.586343, 0.467656, 495.761405, 335.123734)" fill-opacity="1" fill="#b96ad3" fill-rule="nonzero" stroke-linejoin="round" d="M 352.90004 0.999928 C 352.901678 2.660087 351.559098 4.000936 349.902186 3.998502 C 348.242027 4.00014 346.901179 2.657559 346.903613 1.000648 C 346.901975 -0.659511 348.244555 -2.00036 349.901467 -1.997926 C 351.557554 -2.002811 352.902474 -0.656983 352.90004 0.999928 " stroke="#b96ad3" stroke-width="2" stroke-opacity="1" stroke-miterlimit="4"/><path stroke-linecap="butt" transform="matrix(0.508398, -0.55139, 0.55139, 0.508398, 494.624741, 473.951396)" fill="none" stroke-linejoin="miter" d="M 7.499389 0.999045 L 157.816769 1.00048 " stroke="#b96ad3" stroke-width="2" stroke-opacity="1" stroke-miterlimit="4"/><path stroke-linecap="round" transform="matrix(0.508398, -0.55139, 0.55139, 0.508398, 494.624741, 473.951396)" fill-opacity="1" fill="#b96ad3" fill-rule="nonzero" stroke-linejoin="round" d="M 0.997436 1.000666 C 0.998375 -0.657941 2.342739 -1.996666 3.997815 -1.999556 C 5.656422 -1.998618 6.998976 -0.657784 6.998038 1.000823 C 7.000929 2.655899 5.656266 4.001983 3.997659 4.001045 C 2.346412 4.000405 1.000327 2.655742 0.997436 1.000666 " stroke="#b96ad3" stroke-width="2" stroke-opacity="1" stroke-miterlimit="4"/><path stroke-linecap="butt" transform="matrix(-0.0389996, -0.748985, 0.748985, -0.0389996, 474.700446, 474.496748)" fill="none" stroke-linejoin="miter" d="M 7.500734 0.999124 L 177.913486 1.001125 " stroke="#b96ad3" stroke-width="2" stroke-opacity="1" stroke-miterlimit="4"/><path stroke-linecap="round" transform="matrix(-0.0389996, -0.748985, 0.748985, -0.0389996, 474.700446, 474.496748)" fill-opacity="1" fill="#b96ad3" fill-rule="nonzero" stroke-linejoin="round" d="M 1.002325 0.999753 C 1.000028 -0.658861 2.342537 -2.002327 4.00088 -1.999423 C 5.659493 -2.001721 6.997758 -0.659483 7.000056 0.999131 C 7.002354 2.657744 5.654643 4.00094 4.001502 3.998307 C 2.342888 4.000605 0.999422 2.658096 1.002325 0.999753 " stroke="#b96ad3" stroke-width="2" stroke-opacity="1" stroke-miterlimit="4"/><path stroke-linecap="round" transform="matrix(-0.0389996, -0.748985, 0.748985, -0.0389996, 474.700446, 474.496748)" fill-opacity="1" fill="#b96ad3" fill-rule="nonzero" stroke-linejoin="round" d="M 184.411894 1.000496 C 184.414192 2.65911 183.071683 4.002576 181.41334 3.999672 C 179.754726 4.00197 178.416732 2.65453 178.414164 1.001118 C 178.411866 -0.657495 179.759576 -2.000691 181.412718 -1.998058 C 183.071331 -2.000356 184.414798 -0.657847 184.411894 1.000496 " stroke="#b96ad3" stroke-width="2" stroke-opacity="1" stroke-miterlimit="4"/><path stroke-linecap="butt" transform="matrix(-0.00858765, -0.749951, 0.749951, -0.00858765, 714.733506, 516.383898)" fill="none" stroke-linejoin="miter" d="M 7.500922 0.998569 L 87.334253 1.001219 " stroke="#b96ad3" stroke-width="2" stroke-opacity="1" stroke-miterlimit="4"/><path stroke-linecap="round" transform="matrix(-0.00858765, -0.749951, 0.749951, -0.00858765, 714.733506, 516.383898)" fill-opacity="1" fill="#b96ad3" fill-rule="nonzero" stroke-linejoin="round" d="M 1.000454 1.002263 C 0.998646 -0.659325 2.342189 -1.998196 3.998569 -2.000063 C 5.654949 -2.001931 6.999028 -0.658328 7.000895 0.998052 C 6.997555 2.654372 5.65916 3.998511 3.997572 4.000319 C 2.341192 4.002186 1.002321 2.658643 1.000454 1.002263 " stroke="#b96ad3" stroke-width="2" stroke-opacity="1" stroke-miterlimit="4"/><path stroke-linecap="butt" transform="matrix(-0.123896, 0.739696, -0.739696, -0.123896, 772.657047, 292.728461)" fill="none" stroke-linejoin="miter" d="M 7.500047 0.999786 L 69.677138 0.99926 " stroke="#b96ad3" stroke-width="2" stroke-opacity="1" stroke-miterlimit="4"/><path stroke-linecap="round" transform="matrix(-0.123896, 0.739696, -0.739696, -0.123896, 772.657047, 292.728461)" fill-opacity="1" fill="#b96ad3" fill-rule="nonzero" stroke-linejoin="round" d="M 0.999436 1.000752 C 1.001522 -0.657796 2.344741 -2.002329 3.998153 -1.999382 C 5.655841 -2.002433 7.000374 -0.659213 6.998287 0.999335 C 7.001338 2.657023 5.658119 4.001556 3.99957 3.99947 C 2.341882 4.00252 1.002486 2.65844 0.999436 1.000752 " stroke="#b96ad3" stroke-width="2" stroke-opacity="1" stroke-miterlimit="4"/><g fill="#dbfe87" fill-opacity="1"><g transform="translate(620.49847, 374.692559)"><g><path d="M 19.890625 0 L 16.890625 -14.109375 L 16.765625 -14.109375 L 13.765625 0 L 5.59375 0 L 0.171875 -23.15625 L 7.90625 -23.15625 L 10.5625 -10.03125 L 10.703125 -10.03125 L 13.328125 -23.15625 L 20.671875 -23.15625 L 23.453125 -10.03125 L 23.59375 -10.03125 L 26.078125 -23.15625 L 33.484375 -23.15625 L 28.0625 0 Z M 19.890625 0 "/></g></g></g><g fill="#dbfe87" fill-opacity="1"><g transform="translate(655.265424, 374.692559)"><g><path d="M 8.71875 -15.921875 C 9.4375 -16.640625 10.273438 -17.191406 11.234375 -17.578125 C 12.203125 -17.972656 13.210938 -18.171875 14.265625 -18.171875 C 16.328125 -18.171875 17.875 -17.597656 18.90625 -16.453125 C 19.945312 -15.304688 20.46875 -13.660156 20.46875 -11.515625 L 20.46875 0 L 13.765625 0 L 13.765625 -10.703125 C 13.765625 -11.460938 13.566406 -12.070312 13.171875 -12.53125 C 12.785156 -13 12.234375 -13.234375 11.515625 -13.234375 C 10.679688 -13.234375 10.003906 -12.960938 9.484375 -12.421875 C 8.972656 -11.878906 8.71875 -11.21875 8.71875 -10.4375 L 8.71875 0 L 2.015625 0 L 2.015625 -24.40625 L 8.71875 -24.40625 Z M 8.71875 -15.921875 "/></g></g></g><g fill="#dbfe87" fill-opacity="1"><g transform="translate(677.714096, 374.692559)"><g><path d="M 11.203125 -18.171875 C 14.328125 -18.171875 16.78125 -17.378906 18.5625 -15.796875 C 20.34375 -14.210938 21.234375 -11.910156 21.234375 -8.890625 C 21.234375 -5.859375 20.34375 -3.550781 18.5625 -1.96875 C 16.78125 -0.382812 14.328125 0.40625 11.203125 0.40625 C 8.085938 0.40625 5.644531 -0.378906 3.875 -1.953125 C 2.101562 -3.523438 1.21875 -5.835938 1.21875 -8.890625 C 1.21875 -11.941406 2.101562 -14.25 3.875 -15.8125 C 5.644531 -17.382812 8.085938 -18.171875 11.203125 -18.171875 Z M 11.203125 -13.625 C 9.003906 -13.625 7.90625 -12.359375 7.90625 -9.828125 L 7.90625 -7.90625 C 7.90625 -5.394531 9.003906 -4.140625 11.203125 -4.140625 C 13.429688 -4.140625 14.546875 -5.394531 14.546875 -7.90625 L 14.546875 -9.828125 C 14.546875 -12.359375 13.429688 -13.625 11.203125 -13.625 Z M 11.203125 -13.625 "/></g></g></g><g fill="#dbfe87" fill-opacity="1"><g transform="translate(700.162768, 374.692559)"><g/></g></g><g fill="#dbfe87" fill-opacity="1"><g transform="translate(711.370276, 374.692559)"><g><path d="M 2.25 -19.859375 L 2.25 -24.40625 L 8.953125 -24.40625 L 8.953125 -19.859375 Z M 2.25 0 L 2.25 -17.765625 L 8.953125 -17.765625 L 8.953125 0 Z M 2.25 0 "/></g></g></g><g fill="#dbfe87" fill-opacity="1"><g transform="translate(722.577783, 374.692559)"><g><path d="M 10.46875 -18.171875 C 12.84375 -18.171875 14.851562 -17.703125 16.5 -16.765625 C 18.15625 -15.835938 18.984375 -14.398438 18.984375 -12.453125 L 12.75 -12.453125 C 12.75 -13.097656 12.457031 -13.554688 11.875 -13.828125 C 11.476562 -14.054688 10.972656 -14.171875 10.359375 -14.171875 C 8.742188 -14.171875 7.9375 -13.789062 7.9375 -13.03125 C 7.9375 -12.601562 8.21875 -12.296875 8.78125 -12.109375 C 9.34375 -11.929688 10.265625 -11.742188 11.546875 -11.546875 C 13.117188 -11.316406 14.429688 -11.050781 15.484375 -10.75 C 16.535156 -10.445312 17.453125 -9.90625 18.234375 -9.125 C 19.023438 -8.351562 19.421875 -7.273438 19.421875 -5.890625 C 19.421875 -3.617188 18.570312 -2 16.875 -1.03125 C 15.1875 -0.0703125 12.972656 0.40625 10.234375 0.40625 C 8.660156 0.40625 7.175781 0.1875 5.78125 -0.25 C 4.394531 -0.6875 3.265625 -1.363281 2.390625 -2.28125 C 1.515625 -3.207031 1.078125 -4.375 1.078125 -5.78125 L 7.296875 -5.78125 L 7.296875 -5.65625 C 7.328125 -4.894531 7.648438 -4.359375 8.265625 -4.046875 C 8.878906 -3.742188 9.535156 -3.59375 10.234375 -3.59375 C 12.097656 -3.59375 13.03125 -4.03125 13.03125 -4.90625 C 13.03125 -5.363281 12.738281 -5.691406 12.15625 -5.890625 C 11.570312 -6.085938 10.617188 -6.300781 9.296875 -6.53125 C 7.703125 -6.800781 6.394531 -7.09375 5.375 -7.40625 C 4.351562 -7.71875 3.457031 -8.25 2.6875 -9 C 1.925781 -9.75 1.546875 -10.800781 1.546875 -12.15625 C 1.546875 -14.332031 2.367188 -15.878906 4.015625 -16.796875 C 5.671875 -17.710938 7.820312 -18.171875 10.46875 -18.171875 Z M 10.46875 -18.171875 "/></g></g></g><g fill="#dbfe87" fill-opacity="1"><g transform="translate(743.141705, 374.692559)"><g/></g></g><g fill="#dbfe87" fill-opacity="1"><g transform="translate(754.349212, 374.692559)"><g><path d="M 11.203125 -18.171875 C 14.328125 -18.171875 16.78125 -17.378906 18.5625 -15.796875 C 20.34375 -14.210938 21.234375 -11.910156 21.234375 -8.890625 C 21.234375 -5.859375 20.34375 -3.550781 18.5625 -1.96875 C 16.78125 -0.382812 14.328125 0.40625 11.203125 0.40625 C 8.085938 0.40625 5.644531 -0.378906 3.875 -1.953125 C 2.101562 -3.523438 1.21875 -5.835938 1.21875 -8.890625 C 1.21875 -11.941406 2.101562 -14.25 3.875 -15.8125 C 5.644531 -17.382812 8.085938 -18.171875 11.203125 -18.171875 Z M 11.203125 -13.625 C 9.003906 -13.625 7.90625 -12.359375 7.90625 -9.828125 L 7.90625 -7.90625 C 7.90625 -5.394531 9.003906 -4.140625 11.203125 -4.140625 C 13.429688 -4.140625 14.546875 -5.394531 14.546875 -7.90625 L 14.546875 -9.828125 C 14.546875 -12.359375 13.429688 -13.625 11.203125 -13.625 Z M 11.203125 -13.625 "/></g></g></g><g fill="#dbfe87" fill-opacity="1"><g transform="translate(776.797884, 374.692559)"><g><path d="M 14.265625 -18.171875 C 16.328125 -18.171875 17.875 -17.597656 18.90625 -16.453125 C 19.945312 -15.304688 20.46875 -13.660156 20.46875 -11.515625 L 20.46875 0 L 13.765625 0 L 13.765625 -10.703125 C 13.765625 -11.460938 13.566406 -12.070312 13.171875 -12.53125 C 12.785156 -13 12.234375 -13.234375 11.515625 -13.234375 C 10.679688 -13.234375 10.003906 -12.960938 9.484375 -12.421875 C 8.972656 -11.878906 8.71875 -11.21875 8.71875 -10.4375 L 8.71875 0 L 2.015625 0 L 2.015625 -17.765625 L 7.5 -17.765625 L 7.9375 -15.078125 C 8.632812 -16.015625 9.550781 -16.765625 10.6875 -17.328125 C 11.820312 -17.890625 13.015625 -18.171875 14.265625 -18.171875 Z M 14.265625 -18.171875 "/></g></g></g><g fill="#dbfe87" fill-opacity="1"><g transform="translate(799.256273, 374.692559)"><g/></g></g><g fill="#dbfe87" fill-opacity="1"><g transform="translate(609.096126, 421.192556)"><g><path d="M 15.8125 -17.234375 L 15.8125 0 L 8.375 0 L 8.375 -17.234375 L 0.78125 -17.234375 L 0.78125 -23.15625 L 23.390625 -23.15625 L 23.390625 -17.234375 Z M 15.8125 -17.234375 "/></g></g></g><g fill="#dbfe87" fill-opacity="1"><g transform="translate(634.304713, 421.192556)"><g><path d="M 8.71875 -15.921875 C 9.4375 -16.640625 10.273438 -17.191406 11.234375 -17.578125 C 12.203125 -17.972656 13.210938 -18.171875 14.265625 -18.171875 C 16.328125 -18.171875 17.875 -17.597656 18.90625 -16.453125 C 19.945312 -15.304688 20.46875 -13.660156 20.46875 -11.515625 L 20.46875 0 L 13.765625 0 L 13.765625 -10.703125 C 13.765625 -11.460938 13.566406 -12.070312 13.171875 -12.53125 C 12.785156 -13 12.234375 -13.234375 11.515625 -13.234375 C 10.679688 -13.234375 10.003906 -12.960938 9.484375 -12.421875 C 8.972656 -11.878906 8.71875 -11.21875 8.71875 -10.4375 L 8.71875 0 L 2.015625 0 L 2.015625 -24.40625 L 8.71875 -24.40625 Z M 8.71875 -15.921875 "/></g></g></g><g fill="#dbfe87" fill-opacity="1"><g transform="translate(656.753384, 421.192556)"><g><path d="M 11.203125 -18.171875 C 14.460938 -18.171875 16.945312 -17.40625 18.65625 -15.875 C 20.375 -14.351562 21.234375 -12.023438 21.234375 -8.890625 L 21.234375 -7.734375 L 7.90625 -7.734375 C 7.90625 -6.460938 8.191406 -5.5 8.765625 -4.84375 C 9.335938 -4.195312 10.242188 -3.875 11.484375 -3.875 C 12.597656 -3.875 13.414062 -4.109375 13.9375 -4.578125 C 14.46875 -5.046875 14.734375 -5.675781 14.734375 -6.46875 L 21.234375 -6.46875 C 21.234375 -4.3125 20.414062 -2.625 18.78125 -1.40625 C 17.144531 -0.195312 14.753906 0.40625 11.609375 0.40625 C 8.304688 0.40625 5.75 -0.359375 3.9375 -1.890625 C 2.125 -3.429688 1.21875 -5.765625 1.21875 -8.890625 C 1.21875 -11.941406 2.101562 -14.25 3.875 -15.8125 C 5.644531 -17.382812 8.085938 -18.171875 11.203125 -18.171875 Z M 11.484375 -13.90625 C 9.367188 -13.90625 8.1875 -12.90625 7.9375 -10.90625 L 14.46875 -10.90625 C 14.46875 -11.820312 14.203125 -12.550781 13.671875 -13.09375 C 13.148438 -13.632812 12.421875 -13.90625 11.484375 -13.90625 Z M 11.484375 -13.90625 "/></g></g></g><g fill="#dbfe87" fill-opacity="1"><g transform="translate(679.202056, 421.192556)"><g><path d="M 19.046875 0 L 9.328125 -11.234375 L 9.328125 0 L 2.484375 0 L 2.484375 -23.15625 L 8.984375 -23.15625 L 18.71875 -11.75 L 18.71875 -23.15625 L 25.546875 -23.15625 L 25.546875 0 Z M 19.046875 0 "/></g></g></g><g fill="#dbfe87" fill-opacity="1"><g transform="translate(707.237653, 421.192556)"><g><path d="M 11.203125 -18.171875 C 14.460938 -18.171875 16.945312 -17.40625 18.65625 -15.875 C 20.375 -14.351562 21.234375 -12.023438 21.234375 -8.890625 L 21.234375 -7.734375 L 7.90625 -7.734375 C 7.90625 -6.460938 8.191406 -5.5 8.765625 -4.84375 C 9.335938 -4.195312 10.242188 -3.875 11.484375 -3.875 C 12.597656 -3.875 13.414062 -4.109375 13.9375 -4.578125 C 14.46875 -5.046875 14.734375 -5.675781 14.734375 -6.46875 L 21.234375 -6.46875 C 21.234375 -4.3125 20.414062 -2.625 18.78125 -1.40625 C 17.144531 -0.195312 14.753906 0.40625 11.609375 0.40625 C 8.304688 0.40625 5.75 -0.359375 3.9375 -1.890625 C 2.125 -3.429688 1.21875 -5.765625 1.21875 -8.890625 C 1.21875 -11.941406 2.101562 -14.25 3.875 -15.8125 C 5.644531 -17.382812 8.085938 -18.171875 11.203125 -18.171875 Z M 11.484375 -13.90625 C 9.367188 -13.90625 8.1875 -12.90625 7.9375 -10.90625 L 14.46875 -10.90625 C 14.46875 -11.820312 14.203125 -12.550781 13.671875 -13.09375 C 13.148438 -13.632812 12.421875 -13.90625 11.484375 -13.90625 Z M 11.484375 -13.90625 "/></g></g></g><g fill="#dbfe87" fill-opacity="1"><g transform="translate(729.686325, 421.192556)"><g><path d="M 14.90625 0 L 14.46875 -2.6875 C 13.769531 -1.726562 12.851562 -0.972656 11.71875 -0.421875 C 10.59375 0.128906 9.398438 0.40625 8.140625 0.40625 C 6.078125 0.40625 4.53125 -0.164062 3.5 -1.3125 C 2.46875 -2.457031 1.953125 -4.109375 1.953125 -6.265625 L 1.953125 -17.765625 L 8.65625 -17.765625 L 8.65625 -7.0625 C 8.65625 -6.300781 8.847656 -5.691406 9.234375 -5.234375 C 9.628906 -4.773438 10.1875 -4.546875 10.90625 -4.546875 C 11.738281 -4.546875 12.410156 -4.8125 12.921875 -5.34375 C 13.441406 -5.882812 13.703125 -6.550781 13.703125 -7.34375 L 13.703125 -17.765625 L 20.390625 -17.765625 L 20.390625 0 Z M 14.90625 0 "/></g></g></g><g fill="#dbfe87" fill-opacity="1"><g transform="translate(752.134997, 421.192556)"><g><path d="M 12.828125 -18.203125 C 13.335938 -18.203125 13.796875 -18.140625 14.203125 -18.015625 C 14.609375 -17.898438 14.8125 -17.828125 14.8125 -17.796875 L 14.8125 -12.1875 L 12.65625 -12.1875 C 11.257812 -12.1875 10.253906 -11.828125 9.640625 -11.109375 C 9.023438 -10.390625 8.71875 -9.320312 8.71875 -7.90625 L 8.71875 0 L 2.015625 0 L 2.015625 -17.765625 L 7.5 -17.765625 L 7.9375 -15.078125 C 8.34375 -16.109375 8.984375 -16.882812 9.859375 -17.40625 C 10.734375 -17.9375 11.722656 -18.203125 12.828125 -18.203125 Z M 12.828125 -18.203125 "/></g></g></g><g fill="#dbfe87" fill-opacity="1"><g transform="translate(767.650552, 421.192556)"><g><path d="M 10.796875 -18.171875 C 13.515625 -18.171875 15.722656 -17.71875 17.421875 -16.8125 C 19.128906 -15.90625 19.984375 -14.429688 19.984375 -12.390625 L 19.984375 -5.453125 C 19.984375 -5.066406 20.070312 -4.75 20.25 -4.5 C 20.4375 -4.257812 20.707031 -4.140625 21.0625 -4.140625 L 22.28125 -4.140625 L 22.28125 -0.265625 C 22.207031 -0.222656 22.03125 -0.148438 21.75 -0.046875 C 21.476562 0.046875 21.082031 0.144531 20.5625 0.25 C 20.050781 0.351562 19.457031 0.40625 18.78125 0.40625 C 17.476562 0.40625 16.40625 0.207031 15.5625 -0.1875 C 14.71875 -0.582031 14.140625 -1.125 13.828125 -1.8125 C 12.972656 -1.144531 12.019531 -0.609375 10.96875 -0.203125 C 9.914062 0.203125 8.679688 0.40625 7.265625 0.40625 C 3.097656 0.40625 1.015625 -1.253906 1.015625 -4.578125 C 1.015625 -6.304688 1.476562 -7.625 2.40625 -8.53125 C 3.332031 -9.4375 4.671875 -10.054688 6.421875 -10.390625 C 8.171875 -10.734375 10.460938 -10.90625 13.296875 -10.90625 L 13.296875 -11.78125 C 13.296875 -12.476562 13.050781 -13.003906 12.5625 -13.359375 C 12.082031 -13.722656 11.460938 -13.90625 10.703125 -13.90625 C 10.003906 -13.90625 9.398438 -13.78125 8.890625 -13.53125 C 8.390625 -13.28125 8.140625 -12.890625 8.140625 -12.359375 L 8.140625 -12.21875 L 1.546875 -12.21875 C 1.523438 -12.332031 1.515625 -12.488281 1.515625 -12.6875 C 1.515625 -14.375 2.316406 -15.707031 3.921875 -16.6875 C 5.523438 -17.675781 7.816406 -18.171875 10.796875 -18.171875 Z M 13.296875 -7.734375 C 11.390625 -7.734375 9.976562 -7.523438 9.0625 -7.109375 C 8.15625 -6.703125 7.703125 -6.148438 7.703125 -5.453125 C 7.703125 -4.328125 8.46875 -3.765625 10 -3.765625 C 10.875 -3.765625 11.640625 -4 12.296875 -4.46875 C 12.960938 -4.945312 13.296875 -5.53125 13.296875 -6.21875 Z M 13.296875 -7.734375 "/></g></g></g><g fill="#dbfe87" fill-opacity="1"><g transform="translate(790.099224, 421.192556)"><g><path d="M 2.25 0 L 2.25 -24.40625 L 8.953125 -24.40625 L 8.953125 0 Z M 2.25 0 "/></g></g></g><g fill="#dbfe87" fill-opacity="1"><g transform="translate(801.306732, 421.192556)"><g><path d="M 10.4375 -23.5625 C 12.132812 -23.5625 13.632812 -23.28125 14.9375 -22.71875 C 16.238281 -22.15625 17.25 -21.351562 17.96875 -20.3125 C 18.6875 -19.269531 19.046875 -18.0625 19.046875 -16.6875 C 19.046875 -15.8125 18.851562 -15.03125 18.46875 -14.34375 C 18.09375 -13.664062 17.644531 -13.09375 17.125 -12.625 C 16.613281 -12.15625 15.960938 -11.640625 15.171875 -11.078125 C 14.523438 -10.578125 14.050781 -10.179688 13.75 -9.890625 C 13.445312 -9.597656 13.296875 -9.296875 13.296875 -8.984375 L 13.296875 -8.28125 L 7.53125 -8.28125 L 7.53125 -9.96875 C 7.53125 -10.5 7.695312 -10.984375 8.03125 -11.421875 C 8.375 -11.859375 8.90625 -12.414062 9.625 -13.09375 C 10.363281 -13.738281 10.929688 -14.316406 11.328125 -14.828125 C 11.722656 -15.347656 11.921875 -15.925781 11.921875 -16.5625 C 11.921875 -17.207031 11.71875 -17.757812 11.3125 -18.21875 C 10.90625 -18.6875 10.363281 -18.921875 9.6875 -18.921875 C 8.226562 -18.921875 7.5 -17.976562 7.5 -16.09375 C 7.5 -15.6875 7.507812 -15.378906 7.53125 -15.171875 L 1.34375 -15.171875 C 1.320312 -15.335938 1.300781 -15.519531 1.28125 -15.71875 C 1.257812 -15.914062 1.25 -16.160156 1.25 -16.453125 C 1.25 -17.890625 1.640625 -19.140625 2.421875 -20.203125 C 3.203125 -21.273438 4.296875 -22.101562 5.703125 -22.6875 C 7.109375 -23.269531 8.6875 -23.5625 10.4375 -23.5625 Z M 7.140625 0 L 7.140625 -6.21875 L 13.796875 -6.21875 L 13.796875 0 Z M 7.140625 0 "/></g></g></g><path stroke-linecap="butt" transform="matrix(-0.737945, -0.133932, 0.133932, -0.737945, 940.167607, 431.31331)" fill="none" stroke-linejoin="miter" d="M 7.501878 1.000425 L 134.586022 0.998981 " stroke="#b96ad3" stroke-width="2" stroke-opacity="1" stroke-miterlimit="4"/><path stroke-linecap="round" transform="matrix(-0.737945, -0.133932, 0.133932, -0.737945, 940.167607, 431.31331)" fill-opacity="1" fill="#b96ad3" fill-rule="nonzero" stroke-linejoin="round" d="M 1.001442 0.999776 C 1.002429 -0.657244 2.341233 -2.001258 3.998252 -2.00027 C 5.655272 -1.999283 7.000216 -0.655355 6.999228 1.001664 C 6.998241 2.658684 5.658508 3.997574 4.002418 4.001711 C 2.345399 4.000723 1.000454 2.656795 1.001442 0.999776 " stroke="#b96ad3" stroke-width="2" stroke-opacity="1" stroke-miterlimit="4"/><path stroke-linecap="butt" transform="matrix(0.68687, -0.30118, 0.30118, 0.68687, 788.534967, 542.407505)" fill="none" stroke-linejoin="miter" d="M 7.500523 1.000826 L 258.822983 0.997774 " stroke="#b96ad3" stroke-width="2" stroke-opacity="1" stroke-miterlimit="4"/><path stroke-linecap="round" transform="matrix(0.68687, -0.30118, 0.30118, 0.68687, 788.534967, 542.407505)" fill-opacity="1" fill="#b96ad3" fill-rule="nonzero" stroke-linejoin="round" d="M 1.000635 0.999949 C 0.998718 -0.655817 2.344238 -1.999421 4.000004 -2.001339 C 5.655769 -2.003256 6.999374 -0.657736 7.001291 0.99803 C 7.001117 2.658565 5.655597 4.00217 4.001923 3.999317 C 2.341387 3.999143 1.002553 2.655715 1.000635 0.999949 " stroke="#b96ad3" stroke-width="2" stroke-opacity="1" stroke-miterlimit="4"/><path stroke-linecap="round" transform="matrix(0.68687, -0.30118, 0.30118, 0.68687, 788.534967, 542.407505)" fill-opacity="1" fill="#b96ad3" fill-rule="nonzero" stroke-linejoin="round" d="M 265.32287 0.998651 C 265.322696 2.659187 263.979268 3.998021 262.323502 3.999939 C 260.662966 3.999765 259.324132 2.656336 259.322215 1.000571 C 259.320297 -0.655195 260.665817 -1.998799 262.321583 -2.000717 C 263.977349 -2.002634 265.320953 -0.657114 265.32287 0.998651 " stroke="#b96ad3" stroke-width="2" stroke-opacity="1" stroke-miterlimit="4"/><path stroke-linecap="butt" transform="matrix(0.559359, 0.499617, -0.499617, 0.559359, 822.666589, 266.167799)" fill="none" stroke-linejoin="miter" d="M 7.499661 0.997388 L 259.947001 1.000806 " stroke="#b96ad3" stroke-width="2" stroke-opacity="1" stroke-miterlimit="4"/><path stroke-linecap="round" transform="matrix(0.559359, 0.499617, -0.499617, 0.559359, 822.666589, 266.167799)" fill-opacity="1" fill="#b96ad3" fill-rule="nonzero" stroke-linejoin="round" d="M 1.000041 0.999582 C 1.001256 -0.656577 2.342331 -2.001072 3.99849 -1.999857 C 5.65465 -1.998642 6.999144 -0.657567 6.99793 0.998593 C 7.000185 2.658637 5.65564 3.999246 3.99948 3.998032 C 2.343321 3.996817 0.998826 2.655742 1.000041 0.999582 " stroke="#b96ad3" stroke-width="2" stroke-opacity="1" stroke-miterlimit="4"/><path stroke-linecap="round" transform="matrix(0.559359, 0.499617, -0.499617, 0.559359, 822.666589, 266.167799)" fill-opacity="1" fill="#b96ad3" fill-rule="nonzero" stroke-linejoin="round" d="M 266.442737 1.002081 C 266.445407 2.654771 265.100447 4.002735 263.444288 4.001521 C 261.788128 4.000306 260.443634 2.659231 260.441379 0.999187 C 260.442593 -0.656973 261.787138 -1.997583 263.447182 -1.999838 C 265.103342 -1.998623 266.443952 -0.654078 266.442737 1.002081 " stroke="#b96ad3" stroke-width="2" stroke-opacity="1" stroke-miterlimit="4"/></svg>