<svg width="40" height="40" viewBox="0 0 40 40" fill="none" xmlns="http://www.w3.org/2000/svg">
<path d="M20.0007 39.9784C16.3226 39.9784 12.7266 38.9715 9.60418 37.066L9.14551 36.7863L9.37795 36.2407L9.66508 35.5918L10.2754 35.9498C12.6209 37.3792 15.2872 38.2817 18.0156 38.5738C18.8024 34.5241 18.3885 31.0126 16.8347 28.6397L16.4084 27.9871L17.1393 27.7161C19.0361 27.0126 21.0585 27.0238 22.9441 27.746L23.6538 28.0182L23.2474 28.6596C21.7371 31.0412 21.3605 34.539 22.1709 38.5551C24.8422 38.2456 27.4487 37.3569 29.7396 35.9697L30.3139 35.6229L30.6159 36.2208C30.6259 36.2407 30.6358 36.2618 30.6445 36.2817L30.8571 36.7764L30.3996 37.0635C27.276 38.969 23.6812 39.9759 20.0031 39.9759L20.0007 39.9784ZM19.2524 38.7204C19.8117 38.7428 20.3736 38.7403 20.9317 38.7117C20.1535 34.7764 20.4593 31.2674 21.8005 28.6807C20.6433 28.3662 19.4488 28.3588 18.2866 28.6571C19.665 31.2388 20.0056 34.7565 19.2511 38.7192L19.2524 38.7204Z" fill="#DBFE87"/>
<path d="M32.6265 35.4997L31.6718 34.6545L32.2088 34.1834C33.3387 33.2163 34.358 32.1076 35.2368 30.8882C35.9826 29.854 36.6215 28.7465 37.1398 27.593C33.5003 25.5768 30.0099 24.8907 27.2654 25.6638L26.5084 25.8764L26.4761 25.0908C26.435 24.0964 26.5668 23.1256 26.8639 22.2083C27.1771 21.2425 27.6743 20.3401 28.3406 19.5271L28.8216 18.9404L29.3027 19.5271C31.1759 21.8118 34.6016 23.2922 38.9484 23.6924L39.6556 23.7571L39.4978 24.4494C39.2952 25.3369 39.0292 26.2095 38.706 27.0597L38.7134 27.0635L38.5183 27.5346C37.3238 30.4457 35.4381 33.0784 33.0391 35.143L32.6265 35.4985V35.4997ZM29.6134 24.1126C32.0634 24.1126 34.8104 24.9031 37.6146 26.4345C37.806 25.9149 37.9739 25.3879 38.118 24.8534C34.1367 24.3699 30.9036 22.9864 28.8688 20.9019C28.5158 21.4327 28.2399 21.9982 28.0485 22.5911C27.872 23.1343 27.7651 23.6999 27.7278 24.2804C28.3319 24.1685 28.9621 24.1126 29.6134 24.1126Z" fill="#DBFE87"/>
<path d="M27.6892 15.623L26.9335 15.4179C25.949 15.1507 25.0441 14.7206 24.2436 14.1401C23.4233 13.5435 22.7197 12.7939 22.1529 11.9114L21.7402 11.2675L22.455 10.9953C25.2194 9.94124 27.698 7.14946 29.4357 3.13207L29.7178 2.47949L30.3269 2.84742C31.2517 3.40677 32.138 4.04443 32.9583 4.743L33.5003 5.20416L32.9708 5.67898C29.6892 8.61869 27.8235 11.8716 27.7178 14.8412L27.6905 15.6243L27.6892 15.623ZM23.6271 11.8393C24.0211 12.3353 24.4711 12.7691 24.9733 13.1333C25.4518 13.4813 25.9764 13.766 26.5395 13.9822C26.9062 11.0786 28.6762 8.02205 31.6072 5.24145C31.1796 4.90335 30.7346 4.5839 30.2784 4.28433C28.5768 7.92509 26.2499 10.5652 23.6271 11.8393Z" fill="#DBFE87"/>
<path d="M12.3182 15.6219L12.2797 14.8513C12.133 11.8904 10.2362 8.66237 6.94101 5.76244L6.40527 5.29134L6.94474 4.82521C7.76512 4.1167 8.6489 3.47158 9.5712 2.9085L10.1778 2.53809L10.4649 3.18818C12.2374 7.20681 14.7446 9.98741 17.5252 11.0179L18.2511 11.2876L17.831 11.9389C17.2679 12.8103 16.5706 13.5511 15.7576 14.1415C14.9559 14.7245 14.0485 15.1558 13.0616 15.4218L12.317 15.6232L12.3182 15.6219ZM8.30085 5.3162C11.2468 8.06448 13.0442 11.0974 13.4456 13.9911C14.0137 13.7736 14.5445 13.4865 15.028 13.1347C15.5202 12.7767 15.964 12.3528 16.3505 11.8693C13.7116 10.6139 11.3599 7.98493 9.62838 4.34666C9.1722 4.64995 8.72845 4.97437 8.29961 5.3162H8.30085Z" fill="#DBFE87"/>
<path d="M7.37723 35.5003L6.96331 35.1436C2.53821 31.3388 0 25.8099 0 19.9777C0 18.4252 0.178993 16.8752 0.533249 15.3711L0.646362 14.8926H1.27284L1.86326 15.1598L1.74766 15.6558C1.12989 18.3071 1.10254 21.1039 1.66314 23.7801C5.75511 23.2766 8.96579 21.7987 10.7396 19.5899L11.2231 18.9883L11.7079 19.5899C12.3492 20.3854 12.829 21.2667 13.1348 22.2089C13.4369 23.1412 13.5674 24.1231 13.5214 25.1287L13.4866 25.8956L12.7433 25.7005C10.0037 24.982 6.54566 25.7005 2.95711 27.7254C4.08202 30.1877 5.75138 32.4053 7.81104 34.1641L8.35174 34.6265L7.37598 35.5003H7.37723ZM1.92666 24.9994C2.07582 25.5377 2.24859 26.0672 2.44623 26.5892C5.9602 24.6278 9.39959 23.8397 12.2784 24.3307C12.2448 23.7341 12.1367 23.1523 11.9552 22.593C11.77 22.0249 11.5102 21.483 11.1796 20.9721C9.15597 23.079 5.92167 24.4886 1.92666 24.9994Z" fill="#DBFE87"/>
<path d="M19.0037 39.9054L18.4642 39.8643C15.3517 39.6244 12.2964 38.6387 9.6277 37.0116L9.16406 36.7295L9.38159 36.2323C11.2809 31.8917 14.0354 28.8687 17.1379 27.7177L17.6028 27.5449L17.8738 27.9588C19.6799 30.7171 20.1211 34.7717 19.118 39.3758L19.0024 39.9041L19.0037 39.9054ZM10.7476 36.2285C12.9764 37.4977 15.4686 38.3019 18.0155 38.5741C18.7551 34.7655 18.4331 31.4318 17.0994 29.0751C14.6208 30.1826 12.3909 32.6922 10.7476 36.2285Z" fill="#DBFE87"/>
<path d="M7.41804 35.462L7.00661 35.1102C4.66354 33.1077 2.79158 30.5484 1.59581 27.7081L1.38574 27.2096L1.85063 26.9325C5.89536 24.5285 9.87794 23.6634 13.0613 24.4987L13.5473 24.6254L13.5249 25.1276C13.377 28.4241 11.3521 31.9666 7.82326 35.1027L7.41804 35.462ZM2.96063 27.7255C4.00972 30.0226 5.53365 32.1058 7.40437 33.8038C10.2471 31.1599 11.9438 28.2761 12.2434 25.5863C9.59081 25.0742 6.3329 25.8237 2.96187 27.7255H2.96063Z" fill="#DBFE87"/>
<path d="M32.6071 35.4799L32.2019 35.1207C28.6457 31.9672 26.6121 28.4047 26.4779 25.0896L26.458 24.5986L26.9303 24.4656C30.1224 23.5682 34.1423 24.3935 38.2467 26.7913L38.7153 27.0648L38.5077 27.5657C37.9173 28.9902 37.1565 30.3525 36.2467 31.6141C35.3107 32.9143 34.2243 34.0952 33.0186 35.1269L32.6071 35.4786V35.4799ZM27.7569 25.5421C28.0441 28.2506 29.7507 31.158 32.6208 33.8217C33.5879 32.9429 34.4667 31.9585 35.2386 30.8882C35.9844 29.8541 36.6233 28.7465 37.1416 27.593C33.7159 25.695 30.4207 24.9765 27.7569 25.5421Z" fill="#DBFE87"/>
<path d="M21.1916 39.897L21.0723 39.3675C20.0419 34.8019 20.4409 30.7634 22.196 27.9952L22.4682 27.5664L22.943 27.7479C26.0195 28.9213 28.7503 31.9418 30.6298 36.255L30.8473 36.7534L30.3824 37.0356C27.7733 38.6142 24.7827 39.5875 21.7324 39.851L21.1916 39.8982V39.897ZM22.9816 29.1127C21.6951 31.4744 21.4092 34.7883 22.1699 38.557C24.6584 38.2687 27.0909 37.4769 29.265 36.2488C27.6403 32.7423 25.434 30.2389 22.9816 29.1115V29.1127Z" fill="#DBFE87"/>
<path d="M29.5332 15.7502C28.6221 15.7502 27.7507 15.6408 26.9341 15.4183L26.458 15.289L26.4754 14.7968C26.5935 11.4867 28.6047 7.91925 32.141 4.75332L32.545 4.3916L32.9577 4.74337C35.3492 6.77817 37.251 9.37853 38.4592 12.2635L38.668 12.7632L38.2007 13.0379C35.169 14.8254 32.1771 15.7502 29.532 15.7502H29.5332ZM27.752 14.3356C30.4132 14.8776 33.6923 14.143 37.0944 12.2399C36.0316 9.90059 34.4791 7.77754 32.5649 6.04977C29.7134 8.72347 28.0254 11.6309 27.752 14.3356Z" fill="#DBFE87"/>
<path d="M39.3781 24.9804L38.8361 24.9307C34.155 24.4982 30.4285 22.8599 28.3427 20.3155L28.0195 19.9214L28.3427 19.5274C30.4235 16.9892 34.1388 15.3447 38.8038 14.896L39.3433 14.8438L39.4676 15.372C39.8206 16.8748 40.0008 18.4236 40.0008 19.9774C40.0008 21.5311 39.8318 22.9929 39.4987 24.4497L39.3769 24.9804H39.3781ZM29.6504 19.9214C31.495 21.8891 34.5652 23.1943 38.4023 23.6368C38.6385 22.4397 38.7591 21.2117 38.7591 19.9786C38.7591 18.7455 38.6311 17.4342 38.3762 16.1924C34.5515 16.6473 31.4912 17.9562 29.6504 19.9214Z" fill="#DBFE87"/>
<path d="M17.5615 12.3567L17.0942 12.1839C13.9954 11.0354 11.2384 8.01862 9.32912 3.68924L9.11035 3.19203L9.57399 2.90863C12.2266 1.28402 15.2682 0.293349 18.3695 0.0435051L18.9089 0L19.0258 0.528277C20.0451 5.12242 19.6199 9.17461 17.8313 11.9378L17.5603 12.3555L17.5615 12.3567ZM10.6939 3.68924C12.3459 7.21439 14.5771 9.7178 17.0519 10.8241C18.3695 8.46361 18.6778 5.13361 17.9245 1.33499C15.3875 1.6159 12.909 2.42261 10.6939 3.68924Z" fill="#DBFE87"/>
<path d="M22.4268 12.3356L22.1546 11.9105C20.3808 9.14726 19.9632 5.10502 20.9787 0.528277L21.0956 0L21.635 0.0435051C24.6978 0.290863 27.7034 1.26041 30.3286 2.84648L30.7935 3.1274L30.5784 3.62584C28.7065 7.95274 25.9793 10.9832 22.8992 12.1566L22.4281 12.3368L22.4268 12.3356ZM22.0788 1.33374C21.3292 5.11496 21.6301 8.43378 22.934 10.793C25.3901 9.66435 27.594 7.15349 29.2124 3.6333C27.0023 2.38284 24.607 1.61093 22.0788 1.33374Z" fill="#DBFE87"/>
<path d="M0.702785 25.1308L0.575998 24.6038C-0.151159 21.5808 -0.164832 18.3888 0.537465 15.3733L0.660523 14.8438L1.20247 14.896C5.90848 15.3497 9.63998 17.0165 11.7096 19.5895L12.0228 19.9786L11.7096 20.3677C9.6462 22.9345 5.92837 24.6075 1.24225 25.0762L0.702785 25.1296V25.1308ZM1.63255 16.1912C1.13038 18.6821 1.14157 21.2825 1.66487 23.7785C5.51197 23.3049 8.57846 21.9711 10.4069 19.9786C8.57348 17.9823 5.49456 16.6523 1.63255 16.1912Z" fill="#DBFE87"/>
<path d="M10.4735 15.7504C7.82717 15.7504 4.83526 14.8244 1.80233 13.037L1.33496 12.7622L1.54379 12.2626C2.73458 9.41733 4.60282 6.84555 6.94712 4.82567L7.35731 4.47266L7.76378 4.83064C11.3138 7.95555 13.3585 11.4931 13.5226 14.7908L13.5475 15.2905L13.0639 15.421C12.2485 15.6423 11.3809 15.7517 10.4723 15.7517L10.4735 15.7504ZM2.90985 12.2402C6.30573 14.1395 9.57981 14.8754 12.2386 14.3396C11.9266 11.6473 10.2125 8.76599 7.3511 6.12958C5.47789 7.84244 3.95521 9.9369 2.90985 12.2402Z" fill="#DBFE87"/>
</svg>
