<?xml version="1.0" encoding="UTF-8"?>
<svg xmlns="http://www.w3.org/2000/svg" xmlns:xlink="http://www.w3.org/1999/xlink" width="250px" height="250px" viewBox="0 0 250 250" version="1.1">
<g id="surface1">
<path style=" stroke:none;fill-rule:nonzero;fill:rgb(85.882353%,99.607843%,52.941176%);fill-opacity:1;" d="M 125.003906 249.863281 C 102.015625 249.863281 79.542969 243.570312 60.027344 231.664062 L 57.160156 229.914062 L 58.613281 226.503906 L 60.40625 222.449219 L 64.222656 224.6875 C 78.878906 233.621094 95.546875 239.261719 112.597656 241.085938 C 117.515625 215.777344 114.929688 193.828125 105.21875 179 L 102.550781 174.917969 L 107.121094 173.226562 C 118.976562 168.828125 131.617188 168.898438 143.402344 173.414062 L 147.835938 175.113281 L 145.296875 179.121094 C 135.855469 194.007812 133.503906 215.867188 138.566406 240.96875 C 155.265625 239.035156 171.554688 233.480469 185.871094 224.8125 L 189.460938 222.644531 L 191.347656 226.378906 C 191.410156 226.503906 191.472656 226.636719 191.527344 226.761719 L 192.855469 229.851562 L 189.996094 231.648438 C 170.476562 243.554688 148.007812 249.847656 125.019531 249.847656 Z M 120.328125 242.003906 C 123.824219 242.140625 127.335938 242.125 130.824219 241.949219 C 125.960938 217.351562 127.871094 195.421875 136.253906 179.253906 C 129.019531 177.289062 121.554688 177.242188 114.292969 179.105469 C 122.90625 195.242188 125.035156 217.226562 120.320312 241.996094 Z M 120.328125 242.003906 "/>
<path style=" stroke:none;fill-rule:nonzero;fill:rgb(85.882353%,99.607843%,52.941176%);fill-opacity:1;" d="M 203.914062 221.875 L 197.949219 216.589844 L 201.304688 213.644531 C 208.367188 207.601562 214.738281 200.671875 220.230469 193.050781 C 224.890625 186.585938 228.882812 179.664062 232.125 172.457031 C 209.375 159.855469 187.5625 155.566406 170.410156 160.398438 L 165.675781 161.726562 L 165.476562 156.816406 C 165.21875 150.601562 166.042969 144.535156 167.898438 138.800781 C 169.855469 132.765625 172.964844 127.125 177.128906 122.042969 L 180.136719 118.378906 L 183.140625 122.042969 C 194.847656 136.324219 216.261719 145.578125 243.425781 148.078125 L 247.847656 148.480469 L 246.859375 152.808594 C 245.59375 158.355469 243.933594 163.808594 241.914062 169.125 L 241.957031 169.148438 L 240.738281 172.089844 C 233.273438 190.285156 221.488281 206.738281 206.496094 219.644531 L 203.914062 221.867188 Z M 185.082031 150.703125 C 200.394531 150.703125 217.566406 155.644531 235.089844 165.214844 C 236.289062 161.96875 237.335938 158.675781 238.238281 155.332031 C 213.355469 152.3125 193.148438 143.664062 180.429688 130.636719 C 178.222656 133.953125 176.5 137.488281 175.304688 141.195312 C 174.199219 144.589844 173.53125 148.125 173.296875 151.753906 C 177.074219 151.054688 181.011719 150.703125 185.082031 150.703125 Z M 185.082031 150.703125 "/>
<path style=" stroke:none;fill-rule:nonzero;fill:rgb(85.882353%,99.607843%,52.941176%);fill-opacity:1;" d="M 173.058594 97.644531 L 168.335938 96.363281 C 162.179688 94.691406 156.527344 92.003906 151.523438 88.375 C 146.394531 84.648438 142 79.960938 138.457031 74.445312 L 135.875 70.421875 L 140.34375 68.71875 C 157.621094 62.132812 173.113281 44.683594 183.972656 19.574219 L 185.734375 15.496094 L 189.542969 17.796875 C 195.324219 21.292969 200.863281 25.277344 205.988281 29.644531 L 209.375 32.527344 L 206.066406 35.492188 C 185.558594 53.867188 173.898438 74.199219 173.234375 92.757812 L 173.066406 97.652344 Z M 147.667969 73.996094 C 150.132812 77.09375 152.945312 79.808594 156.082031 82.082031 C 159.074219 84.257812 162.351562 86.039062 165.871094 87.390625 C 168.164062 69.242188 179.226562 50.136719 197.546875 32.757812 C 194.871094 30.644531 192.089844 28.648438 189.238281 26.777344 C 178.605469 49.53125 164.0625 66.03125 147.667969 73.996094 Z M 147.667969 73.996094 "/>
<path style=" stroke:none;fill-rule:nonzero;fill:rgb(85.882353%,99.607843%,52.941176%);fill-opacity:1;" d="M 76.988281 97.636719 L 76.75 92.820312 C 75.832031 74.316406 63.976562 54.140625 43.382812 36.015625 L 40.03125 33.070312 L 43.40625 30.15625 C 48.53125 25.730469 54.054688 21.699219 59.820312 18.179688 L 63.609375 15.863281 L 65.40625 19.925781 C 76.484375 45.042969 92.152344 62.421875 109.53125 68.863281 L 114.070312 70.546875 L 111.445312 74.617188 C 107.925781 80.0625 103.566406 84.695312 98.484375 88.382812 C 93.472656 92.027344 87.804688 94.722656 81.636719 96.386719 L 76.980469 97.644531 Z M 51.878906 33.226562 C 70.292969 50.402344 81.527344 69.359375 84.035156 87.445312 C 87.585938 86.085938 90.902344 84.289062 93.925781 82.09375 C 97 79.855469 99.773438 77.203125 102.191406 74.183594 C 85.699219 66.335938 71 49.90625 60.175781 27.167969 C 57.328125 29.0625 54.554688 31.089844 51.871094 33.226562 Z M 51.878906 33.226562 "/>
<path style=" stroke:none;fill-rule:nonzero;fill:rgb(85.882353%,99.607843%,52.941176%);fill-opacity:1;" d="M 46.109375 221.875 L 43.519531 219.648438 C 15.863281 195.867188 0 161.3125 0 124.859375 C 0 115.15625 1.117188 105.46875 3.332031 96.070312 L 4.039062 93.078125 L 7.957031 93.078125 L 11.644531 94.75 L 10.921875 97.847656 C 7.0625 114.417969 6.890625 131.898438 10.394531 148.625 C 35.96875 145.480469 56.035156 136.242188 67.121094 122.4375 L 70.144531 118.675781 L 73.175781 122.4375 C 77.183594 127.410156 80.179688 132.917969 82.09375 138.804688 C 83.980469 144.632812 84.796875 150.769531 84.507812 157.054688 L 84.292969 161.847656 L 79.644531 160.628906 C 62.523438 156.136719 40.910156 160.628906 18.480469 173.285156 C 25.511719 188.671875 35.945312 202.53125 48.820312 213.527344 L 52.199219 216.414062 L 46.101562 221.875 Z M 12.042969 156.246094 C 12.972656 159.609375 14.054688 162.921875 15.289062 166.183594 C 37.25 153.921875 58.746094 149 76.738281 152.066406 C 76.53125 148.339844 75.855469 144.703125 74.71875 141.207031 C 73.5625 137.65625 71.9375 134.269531 69.871094 131.074219 C 57.226562 144.242188 37.011719 153.054688 12.042969 156.246094 Z M 12.042969 156.246094 "/>
<path style=" stroke:none;fill-rule:nonzero;fill:rgb(85.882353%,99.607843%,52.941176%);fill-opacity:1;" d="M 118.773438 249.410156 L 115.402344 249.152344 C 95.949219 247.652344 76.851562 241.492188 60.171875 231.324219 L 57.273438 229.558594 L 58.636719 226.453125 C 70.503906 199.324219 87.722656 180.429688 107.113281 173.234375 L 110.015625 172.15625 L 111.710938 174.742188 C 123 191.980469 125.757812 217.324219 119.488281 246.097656 L 118.765625 249.402344 Z M 67.171875 226.429688 C 81.101562 234.359375 96.679688 239.386719 112.597656 241.089844 C 117.21875 217.285156 115.207031 196.449219 106.871094 181.71875 C 91.378906 188.640625 77.441406 204.328125 67.171875 226.429688 Z M 67.171875 226.429688 "/>
<path style=" stroke:none;fill-rule:nonzero;fill:rgb(85.882353%,99.607843%,52.941176%);fill-opacity:1;" d="M 46.363281 221.636719 L 43.792969 219.4375 C 29.148438 206.921875 17.449219 190.925781 9.972656 173.175781 L 8.660156 170.058594 L 11.566406 168.328125 C 36.847656 153.304688 61.738281 147.894531 81.632812 153.117188 L 84.671875 153.910156 L 84.53125 157.046875 C 83.605469 177.652344 70.949219 199.792969 48.894531 219.390625 Z M 18.503906 173.285156 C 25.0625 187.640625 34.585938 200.660156 46.277344 211.273438 C 64.042969 194.75 74.648438 176.726562 76.519531 159.914062 C 59.941406 156.714844 39.582031 161.398438 18.511719 173.285156 Z M 18.503906 173.285156 "/>
<path style=" stroke:none;fill-rule:nonzero;fill:rgb(85.882353%,99.607843%,52.941176%);fill-opacity:1;" d="M 203.792969 221.75 L 201.261719 219.503906 C 179.035156 199.796875 166.324219 177.53125 165.488281 156.808594 L 165.363281 153.742188 L 168.3125 152.910156 C 188.265625 147.300781 213.390625 152.460938 239.042969 167.445312 L 241.96875 169.15625 L 240.671875 172.285156 C 236.984375 181.1875 232.226562 189.703125 226.542969 197.589844 C 220.691406 205.714844 213.902344 213.09375 206.367188 219.542969 L 203.792969 221.742188 Z M 173.480469 159.636719 C 175.277344 176.566406 185.941406 194.738281 203.878906 211.386719 C 209.925781 205.894531 215.417969 199.742188 220.242188 193.050781 C 224.902344 186.589844 228.894531 179.664062 232.136719 172.457031 C 210.722656 160.59375 190.128906 156.101562 173.480469 159.636719 Z M 173.480469 159.636719 "/>
<path style=" stroke:none;fill-rule:nonzero;fill:rgb(85.882353%,99.607843%,52.941176%);fill-opacity:1;" d="M 132.449219 249.355469 L 131.703125 246.046875 C 125.261719 217.511719 127.753906 192.269531 138.726562 174.96875 L 140.425781 172.289062 L 143.394531 173.425781 C 162.621094 180.757812 179.6875 199.636719 191.4375 226.59375 L 192.796875 229.707031 L 189.890625 231.472656 C 173.582031 241.339844 154.890625 247.421875 135.828125 249.070312 L 132.449219 249.363281 Z M 143.636719 181.953125 C 135.59375 196.714844 133.808594 217.425781 138.5625 240.980469 C 154.113281 239.179688 169.316406 234.230469 182.90625 226.554688 C 172.75 204.640625 158.960938 188.992188 143.636719 181.945312 Z M 143.636719 181.953125 "/>
<path style=" stroke:none;fill-rule:nonzero;fill:rgb(85.882353%,99.607843%,52.941176%);fill-opacity:1;" d="M 184.582031 98.4375 C 178.886719 98.4375 173.441406 97.753906 168.339844 96.363281 L 165.363281 95.554688 L 165.472656 92.480469 C 166.210938 71.792969 178.78125 49.496094 200.882812 29.707031 L 203.40625 27.449219 L 205.984375 29.644531 C 220.933594 42.363281 232.820312 58.617188 240.371094 76.648438 L 241.675781 79.769531 L 238.753906 81.488281 C 219.804688 92.660156 201.105469 98.4375 184.574219 98.4375 Z M 173.449219 89.597656 C 190.082031 92.984375 210.578125 88.394531 231.839844 76.5 C 225.199219 61.878906 215.496094 48.609375 203.53125 37.8125 C 185.707031 54.523438 175.160156 72.691406 173.449219 89.597656 Z M 173.449219 89.597656 "/>
<path style=" stroke:none;fill-rule:nonzero;fill:rgb(85.882353%,99.607843%,52.941176%);fill-opacity:1;" d="M 246.113281 156.128906 L 242.726562 155.816406 C 213.46875 153.113281 190.179688 142.875 177.140625 126.972656 L 175.121094 124.507812 L 177.140625 122.046875 C 190.148438 106.183594 213.367188 95.90625 242.523438 93.101562 L 245.894531 92.773438 L 246.671875 96.074219 C 248.878906 105.46875 250.003906 115.148438 250.003906 124.859375 C 250.003906 134.570312 248.949219 143.707031 246.867188 152.8125 L 246.105469 156.128906 Z M 185.316406 124.507812 C 196.84375 136.808594 216.03125 144.964844 240.015625 147.730469 C 241.492188 140.25 242.246094 132.574219 242.246094 124.867188 C 242.246094 117.160156 241.445312 108.964844 239.851562 101.203125 C 215.945312 104.046875 196.820312 112.226562 185.316406 124.507812 Z M 185.316406 124.507812 "/>
<path style=" stroke:none;fill-rule:nonzero;fill:rgb(85.882353%,99.607843%,52.941176%);fill-opacity:1;" d="M 109.757812 77.230469 L 106.839844 76.148438 C 87.472656 68.972656 70.238281 50.117188 58.308594 23.058594 L 56.941406 19.949219 L 59.835938 18.179688 C 76.417969 8.023438 95.425781 1.832031 114.808594 0.273438 L 118.179688 0 L 118.910156 3.300781 C 125.28125 32.015625 122.625 57.339844 111.445312 74.609375 L 109.75 77.222656 Z M 66.835938 23.058594 C 77.160156 45.089844 91.105469 60.734375 106.574219 67.652344 C 114.808594 52.898438 116.734375 32.085938 112.027344 8.34375 C 96.171875 10.097656 80.679688 15.140625 66.835938 23.058594 Z M 66.835938 23.058594 "/>
<path style=" stroke:none;fill-rule:nonzero;fill:rgb(85.882353%,99.607843%,52.941176%);fill-opacity:1;" d="M 140.167969 77.097656 L 138.464844 74.441406 C 127.378906 57.171875 124.769531 31.90625 131.117188 3.300781 L 131.847656 0 L 135.21875 0.273438 C 154.359375 1.816406 173.144531 7.878906 189.554688 17.789062 L 192.460938 19.546875 L 191.113281 22.660156 C 179.414062 49.703125 162.371094 68.644531 143.121094 75.980469 L 140.175781 77.105469 Z M 137.992188 8.335938 C 133.308594 31.96875 135.1875 52.710938 143.335938 67.457031 C 158.6875 60.402344 172.460938 44.710938 182.578125 22.707031 C 168.765625 14.894531 153.792969 10.066406 137.992188 8.335938 Z M 137.992188 8.335938 "/>
<path style=" stroke:none;fill-rule:nonzero;fill:rgb(85.882353%,99.607843%,52.941176%);fill-opacity:1;" d="M 4.390625 157.066406 L 3.601562 153.773438 C -0.945312 134.878906 -1.03125 114.929688 3.359375 96.082031 L 4.128906 92.773438 L 7.515625 93.101562 C 36.929688 95.9375 60.25 106.351562 73.183594 122.433594 L 75.140625 124.867188 L 73.183594 127.296875 C 60.289062 143.339844 37.050781 153.796875 7.765625 156.726562 L 4.390625 157.058594 Z M 10.203125 101.195312 C 7.066406 116.761719 7.136719 133.015625 10.40625 148.617188 C 34.449219 145.65625 53.617188 137.320312 65.042969 124.867188 C 53.585938 112.390625 34.339844 104.078125 10.203125 101.195312 Z M 10.203125 101.195312 "/>
<path style=" stroke:none;fill-rule:nonzero;fill:rgb(85.882353%,99.607843%,52.941176%);fill-opacity:1;" d="M 65.460938 98.441406 C 48.917969 98.441406 30.21875 92.652344 11.265625 81.480469 L 8.34375 79.765625 L 9.648438 76.640625 C 17.089844 58.859375 28.769531 42.785156 43.417969 30.160156 L 45.984375 27.953125 L 48.523438 30.191406 C 70.710938 49.722656 83.492188 71.832031 84.515625 92.441406 L 84.671875 95.566406 L 81.648438 96.382812 C 76.554688 97.765625 71.128906 98.449219 65.453125 98.449219 Z M 18.1875 76.5 C 39.410156 88.371094 59.875 92.972656 76.492188 89.621094 C 74.542969 72.796875 63.828125 54.789062 45.945312 38.308594 C 34.238281 49.015625 24.71875 62.105469 18.1875 76.5 Z M 18.1875 76.5 "/>
</g>
</svg>
