<svg width="351" height="236" viewBox="0 0 351 236" fill="none" xmlns="http://www.w3.org/2000/svg">
<g clip-path="url(#clip0_3_1797)">
<path d="M75.8977 151.702C61.9411 151.702 48.2957 147.882 36.4475 140.651L34.707 139.59L35.589 137.519L36.6786 135.057L38.9945 136.415C47.8948 141.84 58.0121 145.264 68.3652 146.372C71.3508 131.005 69.7801 117.681 63.8843 108.677L62.2665 106.201L65.0399 105.172C72.2375 102.503 79.9115 102.545 87.0667 105.285L89.7599 106.318L88.2176 108.752C82.4868 117.789 81.0577 131.062 84.133 146.302C94.2691 145.127 104.16 141.755 112.853 136.491L115.032 135.175L116.178 137.444C116.216 137.519 116.253 137.599 116.286 137.675L117.093 139.552L115.357 140.642C103.504 147.872 89.8637 151.693 75.9071 151.693L75.8977 151.702ZM73.0582 146.929C75.1807 147.014 77.3127 147.004 79.4304 146.896C76.4778 131.963 77.6381 118.648 82.7274 108.832C78.3362 107.639 73.8035 107.611 69.3934 108.743C74.6242 118.539 75.9165 131.887 73.0535 146.924L73.0582 146.929Z" fill="#DBFE87"/>
<path d="M123.805 134.708L120.183 131.501L122.22 129.713C126.508 126.043 130.376 121.836 133.71 117.209C136.54 113.285 138.965 109.082 140.931 104.705C127.121 97.0548 113.877 94.4512 103.462 97.385L100.59 98.1915L100.467 95.2106C100.312 91.4373 100.812 87.7536 101.939 84.2727C103.127 80.6078 105.014 77.1835 107.542 74.0988L109.368 71.8726L111.193 74.0988C118.301 82.7681 131.3 88.3856 147.794 89.9044L150.478 90.1496L149.879 92.7768C149.11 96.1445 148.101 99.4556 146.874 102.682L146.903 102.696L146.162 104.484C141.63 115.53 134.474 125.52 125.371 133.354L123.805 134.703V134.708ZM112.372 91.4986C121.669 91.4986 132.092 94.4984 142.733 100.309C143.46 98.3378 144.096 96.3379 144.643 94.3097C129.536 92.4749 117.268 87.2253 109.547 79.3155C108.207 81.3295 107.16 83.4756 106.434 85.7254C105.764 87.7866 105.358 89.9327 105.217 92.1353C107.509 91.7108 109.901 91.4986 112.372 91.4986Z" fill="#DBFE87"/>
<path d="M105.071 59.2837L102.203 58.5054C98.4677 57.4913 95.034 55.8594 91.9964 53.6567C88.8834 51.3927 86.2138 48.5486 84.063 45.1997L82.4971 42.7565L85.2092 41.7235C95.699 37.7238 105.104 27.1302 111.698 11.8859L112.769 9.40967L115.08 10.8058C118.589 12.9283 121.952 15.3479 125.065 17.9987L127.121 19.7486L125.112 21.5504C112.66 32.7053 105.58 45.0488 105.18 56.3169L105.076 59.2884L105.071 59.2837ZM89.657 44.9262C91.1522 46.8081 92.8596 48.4542 94.7651 49.8362C96.581 51.1569 98.5715 52.237 100.708 53.0577C102.1 42.0396 108.816 30.4413 119.938 19.8901C118.315 18.6072 116.627 17.395 114.896 16.2583C108.439 30.0734 99.6091 40.0916 89.657 44.9262Z" fill="#DBFE87"/>
<path d="M46.7448 59.279L46.5986 56.3546C46.042 45.1195 38.8444 32.8704 26.3405 21.8664L24.3076 20.0788L26.3546 18.31C29.4676 15.6215 32.8212 13.1736 36.321 11.0369L38.6227 9.63135L39.7122 12.0982C46.4382 27.3471 55.9517 37.8983 66.5029 41.8084L69.2574 42.8319L67.6632 45.3035C65.5265 48.6099 62.8805 51.421 59.7958 53.6614C56.7535 55.8735 53.3104 57.5102 49.5654 58.5196L46.7401 59.2837L46.7448 59.279ZM31.5005 20.1731C42.679 30.6016 49.4993 42.1103 51.0228 53.0907C53.1783 52.2653 55.1923 51.1757 57.0271 49.8409C58.8949 48.4825 60.5788 46.8741 62.0456 45.0393C52.0322 40.2755 43.1082 30.2998 36.5379 16.4941C34.8069 17.645 33.1231 18.876 31.4958 20.1731H31.5005Z" fill="#DBFE87"/>
<path d="M27.9963 134.708L26.4257 133.354C9.63436 118.916 0.00292969 97.9367 0.00292969 75.8061C0.00292969 69.915 0.682129 64.0333 2.02638 58.3262L2.4556 56.5103H4.83279L7.07321 57.5243L6.63456 59.4063C4.29038 69.4669 4.18661 80.0794 6.31383 90.2344C21.8411 88.3242 34.0242 82.716 40.7549 74.3345L42.5897 72.0517L44.4292 74.3345C46.863 77.3532 48.6836 80.6973 49.8439 84.2725C50.9901 87.81 51.4853 91.5362 51.3108 95.352L51.1787 98.2622L48.3582 97.5217C37.9626 94.7954 24.8409 97.5217 11.2239 105.205C15.4925 114.549 21.8269 122.963 29.6424 129.637L31.6942 131.392L27.9916 134.708H27.9963ZM7.31376 94.8615C7.87976 96.9038 8.53538 98.9131 9.28533 100.894C22.6193 93.4512 35.6703 90.4608 46.5941 92.3239C46.4668 90.0599 46.0564 87.8525 45.3678 85.73C44.665 83.5745 43.6792 81.518 42.4246 79.5795C34.7459 87.5742 22.4731 92.9229 7.31376 94.8615Z" fill="#DBFE87"/>
<path d="M72.1115 151.424L70.0645 151.268C58.254 150.358 46.6604 146.618 36.5337 140.444L34.7744 139.373L35.5998 137.486C42.8069 121.016 53.259 109.545 65.0318 105.177L66.7958 104.521L67.8241 106.092C74.6774 116.558 76.3518 131.944 72.5455 149.415L72.1068 151.419L72.1115 151.424ZM40.7834 137.472C49.2404 142.288 58.6973 145.339 68.3618 146.372C71.1682 131.921 69.9466 119.27 64.8856 110.328C55.4806 114.53 47.0189 124.053 40.7834 137.472Z" fill="#DBFE87"/>
<path d="M28.1488 134.562L26.5875 133.227C17.6966 125.628 10.5933 115.917 6.05591 105.139L5.25879 103.248L7.02282 102.196C22.3708 93.0739 37.483 89.7911 49.5624 92.9607L51.4066 93.4418L51.3217 95.3473C50.7604 107.856 43.077 121.298 29.6864 133.199L28.1488 134.562ZM11.2348 105.205C15.2157 113.922 20.9983 121.827 28.0969 128.27C38.8839 118.237 45.3221 107.295 46.4588 97.0878C36.3935 95.1445 24.0311 97.9887 11.2395 105.205H11.2348Z" fill="#DBFE87"/>
<path d="M123.731 134.632L122.193 133.269C108.699 121.303 100.982 107.785 100.473 95.2056L100.397 93.3425L102.19 92.8378C114.302 89.4324 129.556 92.5642 145.13 101.663L146.908 102.7L146.121 104.601C143.88 110.006 140.994 115.176 137.541 119.963C133.99 124.897 129.867 129.378 125.292 133.293L123.731 134.627V134.632ZM105.326 96.9224C106.416 107.2 112.892 118.232 123.783 128.34C127.452 125.005 130.787 121.27 133.716 117.209C136.546 113.285 138.97 109.082 140.937 104.705C127.938 97.5026 115.434 94.7764 105.326 96.9224Z" fill="#DBFE87"/>
<path d="M80.414 151.391L79.9612 149.382C76.0511 132.057 77.5651 116.733 84.2251 106.229L85.258 104.602L87.0598 105.29C98.7335 109.743 109.096 121.204 116.228 137.571L117.053 139.462L115.289 140.533C105.389 146.523 94.0405 150.216 82.4658 151.216L80.414 151.396V151.391ZM87.206 110.469C82.3243 119.431 81.2394 132.005 84.126 146.306C93.5688 145.212 102.799 142.208 111.049 137.547C104.884 124.242 96.512 114.742 87.206 110.464V110.469Z" fill="#DBFE87"/>
<path d="M112.066 59.7649C108.609 59.7649 105.303 59.3499 102.204 58.5056L100.397 58.0151L100.463 56.1473C100.912 43.5868 108.543 30.05 121.962 18.0366L123.495 16.6641L125.061 17.9989C134.136 25.7201 141.352 35.5873 145.937 46.5347L146.729 48.4308L144.956 49.4732C133.452 56.2557 122.099 59.7649 112.062 59.7649H112.066ZM105.308 54.3974C115.406 56.4538 127.848 53.6663 140.758 46.4451C136.725 37.5683 130.834 29.5123 123.57 22.9561C112.75 33.1016 106.345 44.1339 105.308 54.3974Z" fill="#DBFE87"/>
<path d="M149.421 94.7906L147.365 94.6019C129.602 92.9605 115.461 86.7439 107.547 77.0889L106.32 75.5937L107.547 74.0986C115.442 64.4671 129.54 58.227 147.242 56.5243L149.289 56.3262L149.761 58.3308C151.1 64.0332 151.784 69.9102 151.784 75.806C151.784 81.7018 151.143 87.2486 149.879 92.7766L149.416 94.7906H149.421ZM112.509 75.5937C119.508 83.0602 131.158 88.0127 145.719 89.6919C146.615 85.1497 147.072 80.4896 147.072 75.8107C147.072 71.1318 146.586 66.1557 145.62 61.4438C131.106 63.1701 119.494 68.1367 112.509 75.5937Z" fill="#DBFE87"/>
<path d="M66.6399 46.8884L64.8664 46.2327C53.1078 41.8745 42.6462 30.4272 35.4014 13.9991L34.5713 12.1124L36.3306 11.037C46.396 4.87231 57.9376 1.11313 69.7057 0.165083L71.7528 0L72.1961 2.00458C76.0638 19.4374 74.4507 34.8137 67.6634 45.2988L66.6352 46.8836L66.6399 46.8884ZM40.5803 13.9991C46.8488 27.3755 55.3152 36.8749 64.7061 41.0727C69.7057 32.1158 70.8755 19.4798 68.0172 5.0657C58.3904 6.13166 48.9854 9.19278 40.5803 13.9991Z" fill="#DBFE87"/>
<path d="M85.1019 46.8082L84.069 45.1951C77.3383 34.7099 75.7535 19.3713 79.607 2.00458L80.0504 0L82.0974 0.165083C93.7193 1.1037 105.124 4.7827 115.086 10.8012L116.85 11.8671L116.034 13.7585C108.931 30.1772 98.5821 41.6764 86.8943 46.129L85.1066 46.8129L85.1019 46.8082ZM83.7812 5.06098C80.9371 19.4091 82.0785 32.0026 87.0263 40.9548C96.3464 36.6721 104.709 27.1444 110.85 13.7868C102.464 9.04185 93.3749 6.1128 83.7812 5.06098Z" fill="#DBFE87"/>
<path d="M2.66707 95.3613L2.18597 93.3614C-0.573276 81.8905 -0.625159 69.7781 2.03976 58.3355L2.50671 56.3262L4.56317 56.5243C22.4205 58.2459 36.5799 64.5709 44.4331 74.3344L45.6217 75.8107L44.4331 77.287C36.6035 87.0269 22.4959 93.3756 4.7141 95.1538L2.66707 95.3566V95.3613ZM6.19514 61.439C4.28961 70.8912 4.33206 80.7585 6.31777 90.2296C20.9158 88.4325 32.5519 83.3715 39.4901 75.8107C32.533 68.2357 20.8498 63.1889 6.19514 61.439Z" fill="#DBFE87"/>
<path d="M39.7433 59.765C29.7015 59.765 18.3485 56.2511 6.83987 49.4685L5.06641 48.4261L5.85881 46.53C10.3774 35.7336 17.4665 25.9748 26.3621 18.3102L27.9186 16.9707L29.461 18.3291C42.9318 30.1868 50.6907 43.6104 51.3133 56.1237L51.4076 58.0198L49.5729 58.5151C46.4787 59.3547 43.1865 59.7697 39.7386 59.7697L39.7433 59.765ZM11.0424 46.4451C23.9283 53.6522 36.352 56.4445 46.441 54.4116C45.2571 44.1953 38.7528 33.2621 27.8951 23.258C20.7871 29.7576 15.0091 37.7052 11.0424 46.4451Z" fill="#DBFE87"/>
<path d="M196.64 132.048C192.282 132.048 189.089 130.831 187.06 128.402C185.028 125.968 184.014 122.841 184.014 119.006V82.5368H164.963V74.8958H179.141C181.061 74.8958 182.41 74.5091 183.183 73.7308C183.957 72.9573 184.344 71.6083 184.344 69.6886V54.7368H192.871V74.8958H218.903V82.5368H192.871V124.402H218.903V132.043H196.64V132.048Z" fill="#DBFE87"/>
<path d="M230.09 50.0864H238.952V84.2021H239.396C239.985 82.8012 240.726 81.4522 241.613 80.1599C242.499 78.8675 243.589 77.7402 244.881 76.7827C246.174 75.8253 247.707 75.047 249.48 74.4574C251.254 73.8678 253.319 73.5707 255.682 73.5707C261.663 73.5707 266.465 75.4715 270.082 79.2731C273.7 83.0748 275.511 88.4471 275.511 95.39V132.053H266.649V96.9418C266.649 91.7016 265.503 87.8056 263.215 85.2586C260.927 82.7116 257.564 81.4381 253.135 81.4381C251.362 81.4381 249.626 81.6598 247.928 82.1031C246.23 82.5465 244.716 83.2116 243.386 84.0983C242.056 84.985 240.985 86.1312 240.174 87.532C239.363 88.9376 238.957 90.5601 238.957 92.4043V132.057H230.095V50.0864H230.09Z" fill="#DBFE87"/>
<path d="M312.05 133.378C307.913 133.378 304.206 132.675 300.919 131.274C297.631 129.873 294.825 127.859 292.499 125.237C290.174 122.615 288.382 119.478 287.127 115.823C285.872 112.167 285.245 108.087 285.245 103.583C285.245 99.0784 285.891 94.8711 287.184 91.1779C288.476 87.4848 290.268 84.3293 292.556 81.7069C294.844 79.0844 297.593 77.0751 300.81 75.6695C304.022 74.2687 307.583 73.5659 311.498 73.5659C315.413 73.5659 318.828 74.2687 321.964 75.6695C325.101 77.0751 327.78 79.0137 329.997 81.4852C332.214 83.9614 333.912 86.8952 335.091 90.2912C336.27 93.6872 336.864 97.4181 336.864 101.479V105.686H294.556V108.347C294.556 110.856 294.961 113.186 295.773 115.323C296.584 117.464 297.749 119.308 299.263 120.86C300.777 122.412 302.621 123.61 304.8 124.459C306.979 125.308 309.399 125.732 312.055 125.732C315.894 125.732 319.215 124.845 322.021 123.072C324.827 121.299 326.969 118.865 328.445 115.761L334.978 120.19C333.28 124.03 330.454 127.185 326.506 129.661C322.554 132.133 317.738 133.373 312.05 133.373V133.378ZM311.498 80.8767C309.06 80.8767 306.81 81.3201 304.744 82.2068C302.678 83.0936 300.886 84.3105 299.372 85.8623C297.857 87.414 296.674 89.2394 295.829 91.343C294.98 93.4467 294.556 95.7578 294.556 98.2671V99.0406H327.341V97.8237C327.341 95.3145 326.955 93.0269 326.181 90.9563C325.408 88.8904 324.332 87.098 322.969 85.584C321.601 84.0699 319.941 82.9096 317.983 82.0936C316.026 81.2824 313.866 80.8767 311.503 80.8767H311.498Z" fill="#DBFE87"/>
<path d="M11.3027 234.055V176.903H20.1653V186.209H20.6087C21.1983 184.808 21.9388 183.459 22.8255 182.167C23.7123 180.874 24.8018 179.747 26.0942 178.79C27.3866 177.832 28.9195 177.054 30.6882 176.464C32.4617 175.875 34.5276 175.578 36.8906 175.578C42.8714 175.578 47.6729 177.478 51.2906 181.28C54.9083 185.082 56.7195 190.454 56.7195 197.397V234.06H47.8569V198.949C47.8569 193.708 46.7107 189.813 44.4232 187.266C42.1356 184.719 38.7726 183.445 34.3436 183.445C32.5702 183.445 30.8344 183.667 29.1364 184.11C27.4384 184.553 25.9244 185.219 24.5943 186.105C23.2642 186.992 22.1935 188.138 21.3822 189.539C20.571 190.945 20.1653 192.567 20.1653 194.411V234.064H11.3027V234.055Z" fill="#DBFE87"/>
<path d="M93.2657 235.385C89.1292 235.385 85.4172 234.682 82.1344 233.281C78.8469 231.88 76.0405 229.866 73.7152 227.244C71.3899 224.621 69.5975 221.485 68.3429 217.829C67.0883 214.174 66.4609 210.094 66.4609 205.59C66.4609 201.085 67.1071 196.878 68.3995 193.185C69.6919 189.492 71.4842 186.336 73.7718 183.714C76.0593 181.091 78.8139 179.082 82.0259 177.676C85.238 176.276 88.7991 175.573 92.7139 175.573C96.6287 175.573 100.044 176.276 103.18 177.676C106.317 179.082 108.996 181.021 111.213 183.492C113.429 185.968 115.123 188.902 116.307 192.298C117.486 195.694 118.08 199.425 118.08 203.486V207.693H75.7716V210.353C75.7716 212.863 76.1773 215.193 76.9885 217.329C77.7998 219.471 78.9648 221.315 80.4789 222.867C81.9929 224.419 83.8371 225.617 86.0162 226.466C88.1953 227.315 90.615 227.739 93.2705 227.739C97.1098 227.739 100.43 226.852 103.237 225.079C106.043 223.305 108.185 220.872 109.661 217.768L116.193 222.197C114.495 226.036 111.67 229.192 107.722 231.668C103.77 234.14 98.954 235.38 93.2705 235.38L93.2657 235.385ZM92.7139 182.884C90.2754 182.884 88.0255 183.327 85.9596 184.214C83.8937 185.1 82.1014 186.317 80.5874 187.869C79.0733 189.421 77.8894 191.246 77.0451 193.35C76.1961 195.453 75.7716 197.765 75.7716 200.274V201.047H108.557V199.831C108.557 197.321 108.17 195.034 107.397 192.963C106.623 190.897 105.548 189.105 104.185 187.591C102.817 186.077 101.157 184.916 99.1993 184.1C97.2419 183.289 95.0817 182.884 92.7186 182.884H92.7139Z" fill="#DBFE87"/>
<path d="M164.373 224.754H163.93C163.336 226.159 162.6 227.504 161.713 228.796C160.826 230.088 159.737 231.216 158.444 232.173C157.152 233.135 155.619 233.909 153.846 234.498C152.072 235.088 150.006 235.385 147.643 235.385C141.663 235.385 136.861 233.484 133.243 229.683C129.626 225.881 127.814 220.509 127.814 213.566V176.903H136.677V212.014C136.677 217.259 137.818 221.15 140.111 223.697C142.398 226.244 145.761 227.518 150.19 227.518C151.964 227.518 153.695 227.296 155.397 226.853C157.095 226.409 158.61 225.744 159.94 224.857C161.27 223.971 162.336 222.848 163.152 221.48C163.963 220.113 164.369 218.471 164.369 216.551V176.898H173.231V234.05H164.369V224.744L164.373 224.754Z" fill="#DBFE87"/>
<path d="M184.755 226.414H201.48V184.549H184.755V176.908H210.343V191.308H210.895C212.074 186.803 214.309 183.28 217.597 180.728C220.88 178.181 225.073 176.908 230.167 176.908H238.143V185.77H227.398C222.304 185.77 218.187 187.242 215.05 190.19C211.909 193.138 210.343 197.001 210.343 201.788V226.419H232.492V234.06H184.755V226.419V226.414Z" fill="#DBFE87"/>
<path d="M289.642 234.055C286.17 234.055 283.699 233.168 282.223 231.394C280.746 229.621 279.822 227.409 279.454 224.749H278.902C277.647 228.069 275.633 230.673 272.865 232.559C270.096 234.441 266.384 235.385 261.733 235.385C255.753 235.385 250.989 233.833 247.447 230.734C243.904 227.631 242.131 223.386 242.131 217.999C242.131 212.613 244.069 208.585 247.947 205.703C251.824 202.821 258.083 201.382 266.719 201.382H278.902V195.77C278.902 191.586 277.718 188.449 275.36 186.355C272.997 184.266 269.638 183.218 265.28 183.218C261.441 183.218 258.304 183.978 255.866 185.487C253.427 187.001 251.47 189.048 249.994 191.633L244.013 187.204C244.749 185.728 245.749 184.284 247.003 182.869C248.258 181.454 249.81 180.205 251.654 179.115C253.498 178.03 255.602 177.167 257.965 176.53C260.328 175.893 262.95 175.573 265.827 175.573C272.544 175.573 277.878 177.275 281.831 180.681C285.779 184.086 287.755 188.822 287.755 194.887V226.414H295.731V234.055H289.637H289.642ZM263.28 227.965C265.568 227.965 267.657 227.687 269.539 227.135C271.421 226.583 273.063 225.843 274.468 224.918C275.869 223.994 276.959 222.89 277.737 221.598C278.511 220.306 278.902 218.924 278.902 217.443V208.028H266.719C261.403 208.028 257.526 208.769 255.088 210.245C252.649 211.721 251.432 213.863 251.432 216.669V218.994C251.432 221.947 252.484 224.183 254.588 225.697C256.691 227.211 259.587 227.965 263.28 227.965Z" fill="#DBFE87"/>
<path d="M302.269 226.414H322.206V159.734H302.269V152.093H331.064V226.414H351.001V234.055H302.269V226.414Z" fill="#DBFE87"/>
</g>
<defs>
<clipPath id="clip0_3_1797">
<rect width="351" height="235.385" fill="white"/>
</clipPath>
</defs>
</svg>
